<svg height="368pt" fill="#a21b1f" viewBox="0 0 368 368" width="368pt" xmlns="http://www.w3.org/2000/svg"><path d="m344 0h-320c-13.230469 0-24 10.769531-24 24v320c0 13.230469 10.769531 24 24 24h320c13.230469 0 24-10.769531 24-24v-320c0-13.230469-10.769531-24-24-24zm8 344c0 4.40625-3.585938 8-8 8h-320c-4.414062 0-8-3.59375-8-8v-320c0-4.40625 3.585938-8 8-8h320c4.414062 0 8 3.59375 8 8zm0 0"/><path d="m208 120v-48c0-4.414062-3.574219-8-8-8h-112c-13.230469 0-24 10.769531-24 24v112c0 4.414062 3.574219 8 8 8h48c4.425781 0 8-3.585938 8-8v-72h72c4.425781 0 8-3.585938 8-8zm-16-8h-72c-4.425781 0-8 3.585938-8 8v72h-32v-104c0-4.40625 3.585938-8 8-8h104zm0 0"/><path d="m295.984375 160h-48c-4.425781 0-8 3.585938-8 8v72h-72c-4.425781 0-8 3.585938-8 8v48c0 4.414062 3.574219 8 8 8h112c13.230469 0 24-10.769531 24-24v-112c0-4.414062-3.578125-8-8-8zm-8 120c0 4.414062-3.585937 8-8 8h-104v-32h72c4.421875 0 8-3.585938 8-8v-72h32zm0 0"/></svg>